<?xml version="1.0" encoding="UTF-8" standalone="no"?>
<!DOCTYPE svg PUBLIC "-//W3C//DTD SVG 20010904//EN"
              "http://www.w3.org/TR/2001/REC-SVG-20010904/DTD/svg10.dtd">

<svg xmlns="http://www.w3.org/2000/svg"
     width="1in" height="0.456667in"
     viewBox="0 0 300 137">
  <path id="Selection"
        fill="none" stroke="black" stroke-width="1"
        d="M 85.00,7.00
           C 82.57,2.74 81.81,2.03 77.00,1.00
             77.00,1.00 83.00,8.00 83.00,8.00
             83.00,8.00 79.00,8.00 79.00,8.00
             79.00,8.00 83.00,11.00 83.00,11.00
             83.00,11.00 82.00,22.00 82.00,22.00
             77.32,19.41 66.11,15.88 63.77,11.90
             62.71,10.09 62.97,8.93 63.00,7.00
             59.55,9.80 60.88,12.67 64.11,15.15
             67.43,17.71 76.78,21.01 81.00,22.00
             75.12,22.88 72.08,20.85 66.00,21.04
             55.19,21.39 49.40,25.67 42.00,33.00
             41.30,29.00 41.00,28.70 37.00,28.00
             37.00,28.00 37.00,31.00 37.00,31.00
             37.00,31.00 41.00,31.00 41.00,31.00
             40.45,37.81 37.44,41.60 31.00,37.00
             31.00,37.00 30.00,40.00 30.00,40.00
             30.00,40.00 36.00,42.00 36.00,42.00
             28.80,46.44 27.53,46.78 20.00,43.00
             20.00,43.00 24.00,39.00 24.00,39.00
             17.80,39.06 18.98,44.12 21.43,45.83
             26.61,49.42 34.87,45.29 39.00,42.00
             39.00,49.79 39.08,55.55 44.39,61.96
             47.49,65.70 50.47,66.61 51.98,69.21
             53.37,71.61 52.87,76.06 53.30,79.00
             54.03,84.05 56.34,90.72 59.10,95.00
             63.16,101.29 68.54,106.36 75.00,110.12
             79.62,112.81 85.11,114.29 89.00,118.00
             70.70,113.06 58.23,101.87 50.00,85.00
             50.00,85.00 52.00,86.00 52.00,86.00
             50.21,82.82 48.98,82.38 46.74,79.79
             41.16,73.33 38.06,65.91 28.00,66.03
             23.74,66.09 22.68,66.86 20.00,70.00
             24.57,67.91 27.91,65.89 33.00,68.09
             35.06,68.98 41.77,72.89 38.00,75.00
             38.00,75.00 46.00,82.00 46.00,82.00
             38.59,81.69 35.07,74.24 26.00,73.34
             10.72,71.82 11.26,89.98 1.00,78.00
             1.00,78.00 9.00,79.00 9.00,79.00
             4.19,70.99 -2.82,78.61 3.23,82.92
             4.92,84.12 7.02,84.53 9.00,85.00
             5.18,98.89 20.79,108.64 29.85,100.58
             35.74,95.35 31.87,86.78 25.00,87.31
             25.00,87.31 17.00,89.00 17.00,89.00
             17.00,89.00 19.00,87.00 19.00,87.00
             19.00,87.00 19.00,86.00 19.00,86.00
             17.36,87.10 15.16,88.90 17.59,90.83
             21.12,93.62 26.04,88.81 29.29,91.63
             32.79,94.66 30.21,99.06 26.95,100.93
             23.28,102.87 19.76,102.00 16.00,100.93
             20.72,99.49 22.37,100.10 24.00,95.00
             24.00,95.00 17.00,99.00 17.00,99.00
             14.90,92.98 11.47,95.96 10.33,90.94
             8.62,83.41 25.11,76.45 31.17,78.32
             33.18,78.93 35.32,80.23 36.97,81.52
             42.98,86.23 40.37,90.28 42.00,97.00
             38.65,97.99 35.81,99.07 33.74,102.10
             31.01,106.09 32.08,113.49 37.10,115.21
             42.15,116.93 42.86,111.60 51.00,113.00
             46.07,105.93 40.22,115.36 35.33,110.64
             30.48,105.97 38.35,98.32 42.72,100.15
             42.72,100.15 54.00,109.96 54.00,109.96
             61.68,115.38 76.61,121.15 86.00,122.00
             77.02,117.30 57.28,114.62 46.00,99.00
             46.00,99.00 55.00,103.04 55.00,103.04
             68.75,110.67 71.33,115.97 89.00,120.00
             89.00,120.00 89.00,121.00 89.00,121.00
             89.00,121.00 87.00,122.00 87.00,122.00
             89.47,125.62 91.30,129.75 95.02,132.30
             100.62,136.15 112.47,137.10 113.00,128.00
             106.81,135.40 105.55,134.22 97.00,132.00
             100.65,129.70 101.56,129.45 101.00,125.00
             101.00,125.00 100.00,130.00 100.00,130.00
             96.93,129.35 89.98,126.82 94.00,123.00
             94.00,123.00 90.00,120.00 90.00,120.00
             90.00,120.00 110.00,122.00 110.00,122.00
             110.00,122.00 95.00,123.00 95.00,123.00
             100.21,125.07 116.43,124.59 120.00,120.00
             110.93,122.86 99.01,120.61 90.00,118.00
             95.68,116.85 101.25,118.85 107.00,118.99
             117.89,119.25 127.99,116.49 137.00,110.23
             161.67,93.08 155.42,58.55 133.00,52.00
             133.00,52.00 151.00,49.70 151.00,49.70
             151.00,49.70 172.00,38.00 172.00,38.00
             167.61,45.21 163.39,52.45 167.69,61.00
             173.97,73.50 192.44,75.07 199.00,61.00
             202.36,65.47 202.72,66.47 203.00,72.00
             200.23,68.93 200.10,68.68 196.00,68.00
             196.00,68.00 200.00,69.00 200.00,69.00
             200.00,69.00 201.00,75.00 201.00,75.00
             197.66,76.90 196.34,78.44 200.00,81.00
             200.00,81.00 194.00,89.00 194.00,89.00
             200.69,96.91 202.80,92.46 212.00,96.92
             215.02,98.38 218.72,101.22 218.46,105.00
             218.10,110.30 212.09,110.57 211.00,120.00
             203.37,119.29 196.50,115.72 198.00,107.00
             198.00,107.00 204.00,113.00 204.00,113.00
             206.00,107.93 205.60,107.09 204.00,102.00
             207.94,104.68 209.03,106.61 214.00,106.00
             204.77,98.68 194.04,97.25 184.00,92.01
             181.20,90.54 176.37,86.94 179.62,83.42
             183.91,78.76 190.34,90.65 196.00,82.00
             188.46,82.09 185.75,76.34 180.04,79.19
             174.10,82.16 173.23,88.81 176.70,94.00
             180.85,100.19 188.83,103.87 196.00,105.00
             196.00,108.13 195.71,112.17 197.17,114.98
             200.50,121.38 205.54,120.26 211.00,121.45
             215.08,122.34 214.13,122.67 219.00,123.00
             219.00,123.00 213.00,121.00 213.00,121.00
             215.34,118.98 217.12,117.59 218.87,114.96
             227.28,102.28 216.93,96.27 206.00,93.00
             206.00,93.00 225.00,85.18 225.00,85.18
             225.00,85.18 229.00,86.00 229.00,86.00
             230.29,82.88 230.67,82.95 229.00,80.00
             233.79,78.65 233.33,78.48 238.00,80.00
             238.00,80.00 233.00,77.00 233.00,77.00
             238.22,71.78 240.15,69.12 247.00,66.00
             244.20,79.71 239.02,83.25 229.00,92.00
             229.00,92.00 237.00,90.00 237.00,90.00
             237.00,90.00 232.00,93.00 232.00,93.00
             232.00,93.00 239.00,92.00 239.00,92.00
             240.22,95.11 245.73,92.24 248.00,91.21
             255.63,87.74 263.37,83.11 270.00,78.00
             270.73,93.79 277.55,100.82 286.00,113.00
             286.00,113.00 275.00,113.00 275.00,113.00
             277.92,109.63 278.12,109.35 277.00,105.00
             277.00,105.00 275.63,108.47 275.63,108.47
             274.75,109.79 273.59,110.46 271.99,110.50
             267.23,110.63 266.25,104.12 264.00,100.00
             267.31,99.88 274.74,98.51 270.00,94.00
             270.00,94.00 271.00,97.00 271.00,97.00
             262.31,99.53 260.92,95.65 253.00,94.32
             247.01,93.32 241.87,94.73 236.00,95.00
             241.65,97.17 244.03,93.63 251.00,97.41
             253.76,98.91 255.78,100.84 258.00,103.02
             259.74,104.73 262.82,107.76 263.72,110.00
             265.89,115.40 258.76,122.05 254.00,123.31
             247.26,125.10 236.56,118.05 239.00,107.00
             243.03,109.22 244.88,110.17 245.00,115.00
             250.51,111.41 249.12,106.73 246.00,102.00
             259.63,103.35 246.32,114.61 256.00,118.00
             254.39,110.75 258.87,109.04 255.40,104.11
             251.68,98.82 247.09,100.91 242.00,99.51
             232.96,97.02 227.11,95.47 221.00,88.00
             217.32,100.98 228.16,103.72 238.00,107.00
             235.15,117.14 242.72,128.05 254.00,126.01
             260.59,124.82 265.83,117.13 267.00,111.00
             274.99,115.08 286.05,116.27 295.00,117.00
             295.00,117.00 288.00,115.00 288.00,115.00
             295.13,110.87 301.13,108.12 297.00,99.00
             295.47,104.50 299.60,104.20 292.00,110.00
             292.00,110.00 296.00,103.00 296.00,103.00
             285.45,102.47 278.43,83.18 278.00,74.00
             282.67,74.22 295.21,75.92 289.00,83.00
             289.00,83.00 289.00,85.00 289.00,85.00
             289.00,85.00 293.00,86.00 293.00,86.00
             294.32,80.26 293.76,79.48 290.00,75.00
             298.70,81.76 294.11,88.60 290.89,89.09
             289.19,89.35 284.51,86.71 282.00,86.00
             283.30,87.71 284.16,89.05 286.04,90.26
             291.34,93.67 296.54,89.83 296.85,84.00
             297.17,78.16 293.56,73.88 288.00,72.77
             284.05,71.57 280.87,72.31 277.00,72.77
             277.02,67.49 276.70,66.67 280.00,62.00
             281.66,65.93 283.66,64.39 287.00,63.00
             287.00,63.00 285.00,60.00 285.00,60.00
             285.00,60.00 291.00,61.00 291.00,61.00
             291.00,61.00 293.00,57.00 293.00,57.00
             286.20,56.25 283.66,57.37 278.00,61.00
             279.46,55.09 285.40,47.71 292.00,47.35
             294.18,47.23 296.90,48.35 299.00,49.00
             296.16,43.96 293.07,44.77 288.00,46.00
             293.56,40.89 298.08,38.98 299.00,31.00
             299.00,31.00 297.00,31.00 297.00,31.00
             295.83,38.22 289.36,42.60 284.00,47.00
             284.00,47.00 284.00,43.00 284.00,43.00
             279.00,46.77 276.75,50.00 275.00,56.00
             275.00,56.00 278.00,40.00 278.00,40.00
             285.08,41.26 291.75,41.51 294.00,33.00
             294.74,31.06 294.85,29.13 294.00,27.33
             292.10,24.35 286.12,21.30 283.00,20.00
             283.77,29.48 288.84,27.13 290.83,32.08
             291.99,34.96 289.19,38.79 283.09,32.89
             276.69,26.70 278.90,23.23 276.15,19.11
             273.31,14.86 268.66,14.23 264.00,14.00
             272.00,17.80 273.54,16.37 277.00,26.00
             273.68,23.31 271.27,21.52 267.00,20.53
             264.01,19.84 260.82,20.33 258.00,18.99
             251.42,15.87 251.66,11.15 235.00,8.00
             235.00,8.00 237.00,5.00 237.00,5.00
             237.00,5.00 221.15,10.84 221.15,10.84
             218.56,12.73 217.61,14.71 220.00,17.00
             220.35,10.41 228.79,8.06 234.00,10.69
             242.05,14.75 256.44,28.16 259.00,37.00
             262.93,38.36 262.83,44.39 263.00,48.00
             263.00,48.00 261.00,46.00 261.00,46.00
             261.00,46.00 260.00,46.00 260.00,46.00
             260.00,46.00 260.00,54.00 260.00,54.00
             263.73,58.13 262.24,59.64 262.00,65.00
             255.92,62.72 258.09,61.28 258.00,52.00
             257.94,46.10 256.63,40.15 253.64,35.00
             247.24,23.96 236.14,20.01 224.00,20.05
             216.25,20.07 216.75,17.98 210.00,15.75
             200.44,12.58 187.61,12.43 181.00,21.00
             181.00,21.00 190.00,16.79 190.00,16.79
             201.00,13.15 207.17,16.77 217.00,21.00
             206.47,26.92 211.35,21.66 196.00,22.01
             196.00,22.01 171.00,26.91 171.00,26.91
             167.73,27.10 159.46,25.89 159.42,21.44
             159.41,19.11 162.22,18.55 164.01,18.75
             169.25,19.33 172.10,23.59 177.00,15.00
             167.75,16.57 169.40,14.11 164.00,14.21
             155.19,14.37 153.96,24.79 164.00,28.98
             171.61,31.94 180.15,29.54 188.00,28.98
             193.44,28.78 198.88,30.34 204.00,32.00
             204.00,32.00 202.00,38.00 202.00,38.00
             183.11,25.13 166.63,39.59 148.00,40.00
             148.00,40.00 153.00,33.00 153.00,33.00
             149.49,35.99 148.87,37.76 144.00,38.00
             144.85,32.99 143.67,31.69 139.00,30.00
             139.99,28.17 140.68,26.72 142.22,25.23
             149.37,18.33 155.78,29.19 145.00,29.00
             145.00,29.00 152.84,31.00 152.84,31.00
             152.98,29.60 153.03,27.33 152.84,26.02
             151.53,21.57 146.99,19.96 143.04,22.02
             140.13,23.54 138.85,26.42 136.63,28.63
             136.63,28.63 131.00,33.00 131.00,33.00
             127.62,26.01 122.42,24.73 116.00,21.36
             111.13,18.80 107.49,18.11 108.00,12.00
             102.33,15.95 105.61,22.69 109.00,27.00
             109.00,27.00 104.00,28.00 104.00,28.00
             104.00,28.00 99.00,12.00 99.00,12.00
             93.71,16.52 94.40,19.54 98.00,25.00
             92.04,19.58 93.05,13.36 101.00,11.00
             92.11,8.20 89.23,22.09 99.00,27.00
             99.00,27.00 98.00,31.00 98.00,31.00
             95.00,28.68 84.73,22.58 83.61,19.79
             82.57,17.19 83.81,13.37 85.00,11.00
             90.66,-0.27 99.84,-0.03 110.00,4.00
             102.02,-3.59 92.11,0.65 85.00,7.00 Z
           M 134.00,6.00
           C 137.37,12.80 134.88,15.65 128.00,18.00
             133.51,19.36 142.44,13.21 134.00,6.00 Z
           M 116.00,9.00
           C 117.74,14.31 121.70,16.87 127.00,18.00
             127.00,18.00 116.00,9.00 116.00,9.00 Z
           M 254.00,25.00
           C 254.00,25.00 236.00,11.00 236.00,11.00
             241.24,9.28 252.71,14.86 254.61,20.09
             255.34,22.12 254.63,23.18 254.00,25.00 Z
           M 277.00,38.00
           C 274.29,52.39 268.11,69.90 256.00,79.00
             260.37,68.68 266.34,65.13 267.00,51.00
             267.00,51.00 271.00,47.00 271.00,47.00
             271.00,47.00 269.00,47.00 269.00,47.00
             269.00,47.00 269.00,45.00 269.00,45.00
             269.00,45.00 273.00,43.00 273.00,43.00
             269.30,43.39 269.13,44.66 268.00,48.00
             268.00,48.00 259.00,22.00 259.00,22.00
             268.13,23.48 267.56,30.51 277.00,38.00 Z
           M 82.00,27.00
           C 82.00,27.00 68.00,35.00 68.00,35.00
             68.00,35.00 67.00,34.00 67.00,34.00
             67.00,34.00 68.00,30.00 68.00,30.00
             68.00,30.00 63.00,29.00 63.00,29.00
             63.00,29.00 64.00,34.00 64.00,34.00
             61.80,34.12 60.11,34.14 58.00,35.01
             52.09,37.43 48.79,43.82 50.65,50.00
             51.54,52.96 53.57,55.14 54.01,58.00
             54.33,60.13 53.42,63.78 53.00,66.00
             45.80,62.71 43.18,59.63 41.00,52.00
             44.41,53.85 45.50,55.20 49.00,53.00
             44.12,53.40 43.11,52.29 41.00,48.00
             41.00,48.00 45.00,49.00 45.00,49.00
             44.93,45.04 44.54,44.73 41.00,43.00
             43.17,32.36 54.37,24.08 65.00,23.19
             70.32,22.74 77.16,24.88 82.00,27.00 Z
           M 258.00,23.00
           C 258.00,23.00 261.00,31.00 261.00,31.00
             258.25,28.34 256.84,26.90 258.00,23.00 Z
           M 219.00,85.00
           C 219.00,85.00 227.53,74.00 227.53,74.00
             227.53,74.00 232.54,63.17 232.54,63.17
             234.11,60.21 236.50,58.36 237.49,55.00
             240.02,46.35 232.22,44.09 236.00,38.00
             230.64,35.63 227.23,28.84 224.00,24.00
             238.52,24.33 244.61,35.03 247.23,48.00
             247.89,51.50 248.65,58.62 247.23,61.90
             245.92,65.08 241.71,66.95 239.00,69.20
             232.92,74.22 225.95,82.03 219.00,85.00 Z
           M 226.00,61.00
           C 226.00,52.27 226.71,45.15 222.62,37.00
             222.62,37.00 215.00,26.00 215.00,26.00
             216.71,25.70 219.31,25.10 220.99,25.40
             224.99,26.13 229.39,32.21 230.36,36.00
             230.94,39.03 229.60,40.70 230.36,44.00
             230.36,44.00 232.42,49.00 232.42,49.00
             233.78,54.56 231.98,60.00 226.00,61.00 Z
           M 110.00,42.00
           C 110.00,42.00 115.00,41.00 115.00,41.00
             121.01,49.13 123.87,48.16 132.00,44.00
             135.37,53.82 127.57,50.66 122.00,51.20
             122.00,51.20 114.00,53.00 114.00,53.00
             114.00,53.00 100.00,34.00 100.00,34.00
             105.87,25.38 113.26,29.86 121.00,32.69
             124.20,33.87 128.79,35.36 129.67,39.10
             130.40,42.24 128.69,45.49 125.07,44.34
             121.03,43.07 117.04,33.95 111.69,39.43
             110.85,40.29 110.57,41.05 110.00,42.00 Z
           M 87.00,29.00
           C 87.00,29.00 87.00,30.00 87.00,30.00
             87.00,30.00 86.00,29.00 86.00,29.00
             86.00,29.00 87.00,29.00 87.00,29.00 Z
           M 86.00,30.00
           C 87.43,32.81 90.56,36.97 90.28,40.00
             89.93,43.73 85.63,46.84 87.80,54.00
             90.30,62.22 97.78,65.91 100.05,69.44
             102.39,73.08 101.23,78.63 104.19,85.00
             106.19,89.29 108.88,90.98 109.10,93.16
             109.53,97.31 103.36,100.27 100.00,100.79
             93.02,101.88 84.05,99.21 80.23,92.96
             74.95,84.34 80.59,73.84 87.00,72.47
             91.52,71.51 96.13,75.28 95.26,78.82
             94.36,82.48 82.98,86.85 91.12,93.31
             91.12,93.31 94.00,95.00 94.00,95.00
             91.03,85.54 102.52,87.41 98.39,78.02
             93.32,66.47 78.05,71.17 77.10,84.00
             76.18,96.29 87.37,104.63 99.00,102.67
             109.33,100.93 110.73,97.17 115.00,95.60
             118.28,94.39 123.75,95.75 128.80,90.66
             135.54,83.40 128.64,78.59 128.80,71.00
             128.80,71.00 130.00,71.00 130.00,71.00
             130.00,71.00 132.00,73.00 132.00,73.00
             128.24,69.46 124.60,70.88 124.44,76.00
             124.31,79.98 131.47,89.37 121.00,92.43
             119.37,92.91 117.68,92.92 116.00,93.00
             120.98,83.28 122.41,77.88 119.76,67.00
             119.76,67.00 116.00,55.00 116.00,55.00
             116.00,55.00 127.00,56.00 127.00,56.00
             127.00,56.00 123.00,68.00 123.00,68.00
             124.01,66.06 126.23,60.80 127.65,59.64
             130.80,57.07 134.72,60.75 136.79,63.04
             142.55,69.44 143.09,77.86 143.00,86.00
             142.69,111.18 114.24,122.90 93.00,114.00
             94.17,112.96 94.42,112.37 96.11,111.89
             99.51,110.91 103.88,113.55 113.00,112.91
             123.54,112.18 130.32,107.95 137.00,100.00
             124.43,112.45 115.85,113.22 99.00,111.00
             104.04,108.07 113.04,108.67 119.00,107.53
             130.12,105.41 137.28,96.93 139.00,86.00
             137.10,90.86 132.91,104.04 126.00,98.00
             126.00,98.00 124.00,103.00 124.00,103.00
             119.56,102.63 118.79,102.52 118.00,98.00
             115.07,101.78 117.18,102.82 121.00,104.00
             121.00,104.00 121.00,106.00 121.00,106.00
             121.00,106.00 107.00,107.17 107.00,107.17
             107.00,107.17 93.00,109.00 93.00,109.00
             89.35,115.04 83.60,109.39 80.00,105.96
             72.07,98.39 67.63,89.69 65.45,79.00
             64.56,74.64 62.93,70.76 67.00,68.00
             68.00,80.37 69.80,88.27 78.00,98.00
             73.26,91.81 66.08,76.13 69.57,68.37
             71.28,64.60 75.31,65.47 80.00,56.00
             86.73,58.00 89.58,63.51 83.00,68.00
             83.00,68.00 83.00,62.00 83.00,62.00
             79.48,68.98 85.17,68.86 86.97,65.84
             90.14,60.53 83.48,56.65 81.98,54.41
             80.78,52.62 80.41,48.54 79.44,46.00
             78.09,42.46 76.46,40.76 74.00,38.00
             77.60,33.22 80.09,31.20 86.00,30.00 Z
           M 88.00,30.00
           C 88.00,30.00 95.00,35.00 95.00,35.00
             95.00,35.00 95.00,36.00 95.00,36.00
             95.00,36.00 93.00,38.00 93.00,38.00
             90.04,35.66 87.80,34.01 88.00,30.00 Z
           M 262.00,31.00
           C 262.00,31.00 262.00,32.00 262.00,32.00
             262.00,32.00 261.00,31.00 261.00,31.00
             261.00,31.00 262.00,31.00 262.00,31.00 Z
           M 138.00,32.00
           C 138.00,32.00 143.00,38.00 143.00,38.00
             143.00,38.00 136.00,47.00 136.00,47.00
             131.07,42.68 131.16,34.19 138.00,32.00 Z
           M 144.00,37.00
           C 144.00,37.00 139.00,32.00 139.00,32.00
             142.60,33.19 142.69,33.46 144.00,37.00 Z
           M 263.00,33.00
           C 263.00,33.00 263.00,37.00 263.00,37.00
             263.00,37.00 263.00,33.00 263.00,33.00 Z
           M 217.00,61.00
           C 211.53,57.50 213.82,55.78 211.52,50.00
             209.75,45.54 207.74,42.94 204.00,40.00
             204.00,40.00 206.00,34.00 206.00,34.00
             216.62,39.14 217.00,50.74 217.00,61.00 Z
           M 68.00,36.23
           C 62.71,43.42 58.71,45.51 56.00,55.00
             49.42,49.68 48.88,40.65 57.02,36.23
             60.84,34.48 64.04,35.04 68.00,36.23 Z
           M 201.00,84.00
           C 203.29,77.13 205.63,73.58 203.45,66.00
             203.45,66.00 200.54,59.00 200.54,59.00
             198.76,53.18 201.12,49.96 192.00,45.00
             197.69,49.58 197.93,50.92 198.00,58.00
             194.20,57.12 193.25,56.65 190.00,59.00
             190.00,59.00 198.00,59.00 198.00,59.00
             196.83,61.56 195.97,63.65 193.79,65.58
             187.49,71.19 175.48,69.94 170.72,62.96
             167.08,57.61 168.23,51.87 169.00,46.00
             170.94,50.04 170.62,53.33 176.00,52.00
             176.00,52.00 172.00,52.00 172.00,52.00
             172.00,52.00 173.00,41.00 173.00,41.00
             173.00,41.00 175.00,43.00 175.00,43.00
             176.34,41.19 178.66,37.19 180.30,36.17
             184.66,33.47 195.95,35.09 199.69,38.64
             202.95,41.73 201.13,44.22 203.71,51.00
             206.02,57.06 209.28,58.38 210.23,62.00
             211.92,68.41 205.88,80.09 201.00,84.00 Z
           M 97.00,36.00
           C 104.25,42.66 107.81,45.07 113.00,54.00
             113.00,54.00 108.00,56.00 108.00,56.00
             108.00,56.00 94.91,40.04 94.91,40.04
             94.91,40.04 97.00,36.00 97.00,36.00 Z
           M 173.00,36.00
           C 173.00,36.00 161.00,42.43 161.00,42.43
             152.11,47.51 147.48,52.36 137.00,48.00
             141.49,44.43 147.57,40.59 152.00,46.00
             152.00,46.00 153.00,43.00 153.00,43.00
             153.00,43.00 145.00,42.00 145.00,42.00
             145.00,42.00 155.00,40.67 155.00,40.67
             155.00,40.67 173.00,36.00 173.00,36.00 Z
           M 264.00,37.00
           C 264.00,37.00 264.00,42.00 264.00,42.00
             264.00,42.00 264.00,37.00 264.00,37.00 Z
           M 64.00,67.00
           C 64.18,53.21 73.78,59.81 71.00,47.00
             70.66,53.40 71.01,54.66 65.00,58.00
             65.72,50.03 68.38,45.85 72.00,39.00
             76.81,41.41 81.66,49.03 78.01,54.37
             78.01,54.37 71.39,60.10 71.39,60.10
             68.20,63.73 69.09,65.33 64.00,67.00 Z
           M 145.00,39.00
           C 145.00,39.00 142.00,42.00 142.00,42.00
             142.00,42.00 143.00,39.00 143.00,39.00
             143.00,39.00 145.00,39.00 145.00,39.00 Z
           M 93.00,40.00
           C 93.00,40.00 99.28,47.00 99.28,47.00
             99.28,47.00 102.99,51.00 102.99,51.00
             104.15,52.25 109.15,57.22 105.63,58.68
             103.61,59.51 100.51,56.98 99.00,55.86
             93.67,51.91 88.10,46.67 93.00,40.00 Z
           M 37.00,41.00
           C 37.00,41.00 37.00,42.00 37.00,42.00
             37.00,42.00 36.00,41.00 36.00,41.00
             36.00,41.00 37.00,41.00 37.00,41.00 Z
           M 142.00,42.00
           C 142.00,42.00 142.00,43.00 142.00,43.00
             142.00,43.00 141.00,42.00 141.00,42.00
             141.00,42.00 142.00,42.00 142.00,42.00 Z
           M 145.00,42.00
           C 145.00,42.00 145.00,43.00 145.00,43.00
             145.00,43.00 144.00,42.00 144.00,42.00
             144.00,42.00 145.00,42.00 145.00,42.00 Z
           M 205.00,42.00
           C 208.90,48.01 209.99,49.85 211.00,57.00
             205.85,54.11 202.81,47.70 205.00,42.00 Z
           M 265.00,42.00
           C 265.00,42.00 265.00,55.00 265.00,55.00
             263.52,51.28 263.52,45.72 265.00,42.00 Z
           M 171.00,44.00
           C 171.00,44.00 171.00,45.00 171.00,45.00
             171.00,45.00 170.00,44.00 170.00,44.00
             170.00,44.00 171.00,44.00 171.00,44.00 Z
           M 183.00,62.00
           C 190.39,54.48 178.04,49.48 191.00,45.00
             185.69,42.97 180.09,45.93 180.25,52.00
             180.32,55.00 182.23,56.82 183.00,62.00 Z
           M 288.00,46.00
           C 288.00,46.00 288.00,47.00 288.00,47.00
             288.00,47.00 287.00,46.00 287.00,46.00
             287.00,46.00 288.00,46.00 288.00,46.00 Z
           M 284.00,47.00
           C 284.00,47.00 284.00,48.00 284.00,48.00
             284.00,48.00 283.00,47.00 283.00,47.00
             283.00,47.00 284.00,47.00 284.00,47.00 Z
           M 287.00,47.00
           C 287.00,47.00 287.00,48.00 287.00,48.00
             287.00,48.00 286.00,47.00 286.00,47.00
             286.00,47.00 287.00,47.00 287.00,47.00 Z
           M 235.00,50.00
           C 235.00,50.00 235.00,57.00 235.00,57.00
             235.00,57.00 235.00,50.00 235.00,50.00 Z
           M 282.00,50.00
           C 282.00,50.00 282.00,51.00 282.00,51.00
             282.00,51.00 281.00,50.00 281.00,50.00
             281.00,50.00 282.00,50.00 282.00,50.00 Z
           M 78.00,56.00
           C 76.29,60.99 73.99,63.29 69.00,65.00
             71.66,60.06 73.06,58.66 78.00,56.00 Z
           M 114.00,56.00
           C 118.20,64.21 123.41,85.90 114.00,92.00
             116.10,85.55 117.91,80.62 115.24,74.00
             112.71,67.73 108.19,65.64 108.00,59.00
             108.00,59.00 110.00,59.00 110.00,59.00
             110.00,59.00 116.00,70.00 116.00,70.00
             116.00,70.00 110.00,57.00 110.00,57.00
             110.00,57.00 114.00,56.00 114.00,56.00 Z
           M 294.00,57.00
           C 294.00,57.00 297.00,59.00 297.00,59.00
             297.00,59.00 293.00,65.00 293.00,65.00
             299.17,63.91 299.05,59.85 294.00,57.00 Z
           M 272.00,60.00
           C 271.41,66.33 270.12,68.21 265.00,72.00
             265.00,72.00 272.00,60.00 272.00,60.00 Z
           M 214.00,62.00
           C 214.00,62.00 217.00,64.00 217.00,64.00
             213.63,75.53 208.55,86.30 196.00,90.00
             196.00,90.00 208.05,77.00 208.05,77.00
             208.05,77.00 214.00,62.00 214.00,62.00 Z
           M 230.00,63.00
           C 227.76,77.25 215.06,88.79 201.00,91.00
             206.70,85.79 210.30,85.42 216.70,78.00
             224.90,68.49 221.10,65.98 230.00,63.00 Z
           M 260.00,66.00
           C 257.43,74.73 248.31,84.45 240.00,88.00
             247.68,77.28 249.21,80.75 256.00,65.00
             256.00,65.00 260.00,66.00 260.00,66.00 Z
           M 104.00,72.00
           C 110.65,77.50 113.43,82.41 111.00,91.00
             104.78,86.43 100.95,79.70 104.00,72.00 Z
           M 265.00,72.00
           C 265.00,72.00 265.00,73.00 265.00,73.00
             265.00,73.00 264.00,72.00 264.00,72.00
             264.00,72.00 265.00,72.00 265.00,72.00 Z
           M 270.00,72.00
           C 269.87,73.67 269.96,74.98 269.01,76.48
             266.71,80.10 253.34,87.73 249.00,89.00
             249.00,89.00 270.00,72.00 270.00,72.00 Z
           M 264.00,73.00
           C 264.00,73.00 264.00,74.00 264.00,74.00
             264.00,74.00 263.00,73.00 263.00,73.00
             263.00,73.00 264.00,73.00 264.00,73.00 Z
           M 203.00,74.00
           C 203.00,74.00 203.00,75.00 203.00,75.00
             203.00,75.00 202.00,74.00 202.00,74.00
             202.00,74.00 203.00,74.00 203.00,74.00 Z
           M 263.00,74.00
           C 263.00,74.00 263.00,75.00 263.00,75.00
             263.00,75.00 262.00,74.00 262.00,74.00
             262.00,74.00 263.00,74.00 263.00,74.00 Z
           M 290.00,74.00
           C 290.00,74.00 290.00,75.00 290.00,75.00
             290.00,75.00 289.00,74.00 289.00,74.00
             289.00,74.00 290.00,74.00 290.00,74.00 Z
           M 28.00,75.00
           C 28.00,75.00 12.00,82.00 12.00,82.00
             17.09,75.29 20.07,75.02 28.00,75.00 Z
           M 256.00,79.00
           C 256.00,79.00 256.00,80.00 256.00,80.00
             256.00,80.00 255.00,79.00 255.00,79.00
             255.00,79.00 256.00,79.00 256.00,79.00 Z
           M 255.00,80.00
           C 255.00,80.00 255.00,81.00 255.00,81.00
             255.00,81.00 254.00,80.00 254.00,80.00
             254.00,80.00 255.00,80.00 255.00,80.00 Z
           M 254.00,81.00
           C 254.00,81.00 254.00,82.00 254.00,82.00
             254.00,82.00 253.00,81.00 253.00,81.00
             253.00,81.00 254.00,81.00 254.00,81.00 Z
           M 253.00,82.00
           C 253.00,82.00 253.00,83.00 253.00,83.00
             253.00,83.00 252.00,82.00 252.00,82.00
             252.00,82.00 253.00,82.00 253.00,82.00 Z
           M 47.00,83.00
           C 47.00,83.00 54.00,96.00 54.00,96.00
             50.30,93.12 44.14,87.97 47.00,83.00 Z
           M 252.00,83.00
           C 252.00,83.00 252.00,84.00 252.00,84.00
             252.00,84.00 251.00,83.00 251.00,83.00
             251.00,83.00 252.00,83.00 252.00,83.00 Z
           M 50.00,84.00
           C 50.00,84.00 50.00,85.00 50.00,85.00
             50.00,85.00 49.00,84.00 49.00,84.00
             49.00,84.00 50.00,84.00 50.00,84.00 Z
           M 201.00,84.00
           C 201.00,84.00 201.00,85.00 201.00,85.00
             201.00,85.00 200.00,84.00 200.00,84.00
             200.00,84.00 201.00,84.00 201.00,84.00 Z
           M 251.00,84.00
           C 251.00,84.00 251.00,85.00 251.00,85.00
             251.00,85.00 250.00,84.00 250.00,84.00
             250.00,84.00 251.00,84.00 251.00,84.00 Z
           M 200.00,85.00
           C 200.00,85.00 200.00,86.00 200.00,86.00
             200.00,86.00 199.00,85.00 199.00,85.00
             199.00,85.00 200.00,85.00 200.00,85.00 Z
           M 219.00,85.00
           C 219.00,85.00 219.00,86.00 219.00,86.00
             219.00,86.00 218.00,85.00 218.00,85.00
             218.00,85.00 219.00,85.00 219.00,85.00 Z
           M 250.00,85.00
           C 250.00,85.00 250.00,86.00 250.00,86.00
             250.00,86.00 249.00,85.00 249.00,85.00
             249.00,85.00 250.00,85.00 250.00,85.00 Z
           M 199.00,86.00
           C 199.00,86.00 199.00,87.00 199.00,87.00
             199.00,87.00 198.00,86.00 198.00,86.00
             198.00,86.00 199.00,86.00 199.00,86.00 Z
           M 248.00,86.00
           C 248.00,86.00 248.00,87.00 248.00,87.00
             248.00,87.00 247.00,86.00 247.00,86.00
             247.00,86.00 248.00,86.00 248.00,86.00 Z
           M 43.00,87.00
           C 48.39,90.87 51.34,94.54 55.00,100.00
             48.20,98.17 39.47,96.21 43.00,87.00 Z
           M 216.00,87.00
           C 216.00,87.00 216.00,88.00 216.00,88.00
             216.00,88.00 215.00,87.00 215.00,87.00
             215.00,87.00 216.00,87.00 216.00,87.00 Z
           M 247.00,87.00
           C 247.00,87.00 247.00,88.00 247.00,88.00
             247.00,88.00 246.00,87.00 246.00,87.00
             246.00,87.00 247.00,87.00 247.00,87.00 Z
           M 214.00,88.00
           C 214.00,88.00 214.00,89.00 214.00,89.00
             214.00,89.00 213.00,88.00 213.00,88.00
             213.00,88.00 214.00,88.00 214.00,88.00 Z
           M 246.00,88.00
           C 246.00,88.00 246.00,89.00 246.00,89.00
             246.00,89.00 245.00,88.00 245.00,88.00
             245.00,88.00 246.00,88.00 246.00,88.00 Z
           M 244.00,89.00
           C 244.00,89.00 244.00,90.00 244.00,90.00
             244.00,90.00 243.00,89.00 243.00,89.00
             243.00,89.00 244.00,89.00 244.00,89.00 Z
           M 247.00,90.00
           C 247.00,90.00 247.00,91.00 247.00,91.00
             247.00,91.00 246.00,90.00 246.00,90.00
             246.00,90.00 247.00,90.00 247.00,90.00 Z
           M 104.00,90.00
           C 102.00,94.44 101.29,96.87 96.00,97.00
             99.93,101.27 105.79,95.68 104.00,90.00 Z
           M 200.00,91.00
           C 200.00,91.00 200.00,92.00 200.00,92.00
             200.00,92.00 199.00,91.00 199.00,91.00
             199.00,91.00 200.00,91.00 200.00,91.00 Z
           M 241.00,91.00
           C 241.00,91.00 241.00,92.00 241.00,92.00
             241.00,92.00 240.00,91.00 240.00,91.00
             240.00,91.00 241.00,91.00 241.00,91.00 Z
           M 113.00,95.00
           C 113.00,95.00 113.00,96.00 113.00,96.00
             113.00,96.00 112.00,95.00 112.00,95.00
             112.00,95.00 113.00,95.00 113.00,95.00 Z
           M 55.00,96.00
           C 55.00,96.00 55.00,97.00 55.00,97.00
             55.00,97.00 54.00,96.00 54.00,96.00
             54.00,96.00 55.00,96.00 55.00,96.00 Z
           M 112.00,96.00
           C 112.00,96.00 112.00,97.00 112.00,97.00
             112.00,97.00 111.00,96.00 111.00,96.00
             111.00,96.00 112.00,96.00 112.00,96.00 Z
           M 56.00,97.00
           C 56.00,97.00 56.00,98.00 56.00,98.00
             56.00,98.00 55.00,97.00 55.00,97.00
             55.00,97.00 56.00,97.00 56.00,97.00 Z
           M 111.00,97.00
           C 111.00,97.00 111.00,98.00 111.00,98.00
             111.00,98.00 110.00,97.00 110.00,97.00
             110.00,97.00 111.00,97.00 111.00,97.00 Z
           M 256.00,97.00
           C 260.18,99.57 261.16,100.40 263.00,105.00
             259.90,102.77 257.01,100.81 256.00,97.00 Z
           M 110.00,98.00
           C 110.00,98.00 110.00,99.00 110.00,99.00
             110.00,99.00 109.00,98.00 109.00,98.00
             109.00,98.00 110.00,98.00 110.00,98.00 Z
           M 150.00,97.00
           C 150.00,97.00 153.00,99.00 153.00,99.00
             146.80,110.55 138.07,111.58 130.00,118.00
             139.13,119.77 145.53,111.41 150.00,118.00
             150.00,118.00 153.00,117.00 153.00,117.00
             147.15,111.23 140.70,115.20 134.00,117.00
             141.99,112.45 153.17,107.27 154.00,97.00
             154.00,97.00 150.00,97.00 150.00,97.00 Z
           M 109.00,99.00
           C 109.00,99.00 109.00,100.00 109.00,100.00
             109.00,100.00 108.00,99.00 108.00,99.00
             108.00,99.00 109.00,99.00 109.00,99.00 Z
           M 264.00,99.00
           C 264.00,99.00 264.00,100.00 264.00,100.00
             264.00,100.00 263.00,99.00 263.00,99.00
             263.00,99.00 264.00,99.00 264.00,99.00 Z
           M 56.00,100.00
           C 56.00,100.00 56.00,101.00 56.00,101.00
             56.00,101.00 55.00,100.00 55.00,100.00
             55.00,100.00 56.00,100.00 56.00,100.00 Z
           M 78.00,99.00
           C 78.00,99.00 82.00,103.00 82.00,103.00
             82.00,103.00 78.00,99.00 78.00,99.00 Z
           M 83.00,103.00
           C 83.00,103.00 88.00,107.00 88.00,107.00
             88.00,107.00 83.00,103.00 83.00,103.00 Z
           M 264.00,105.00
           C 264.00,105.00 264.00,106.00 264.00,106.00
             264.00,106.00 263.00,105.00 263.00,105.00
             263.00,105.00 264.00,105.00 264.00,105.00 Z
           M 89.00,107.00
           C 89.00,107.00 89.00,108.00 89.00,108.00
             89.00,108.00 90.00,107.00 90.00,107.00
             90.00,107.00 89.00,107.00 89.00,107.00 Z
           M 91.00,108.00
           C 91.00,108.00 91.00,109.00 91.00,109.00
             91.00,109.00 92.00,108.00 92.00,108.00
             92.00,108.00 91.00,108.00 91.00,108.00 Z
           M 220.00,110.00
           C 220.00,110.00 220.00,111.00 220.00,111.00
             220.00,111.00 219.00,110.00 219.00,110.00
             219.00,110.00 220.00,110.00 220.00,110.00 Z
           M 292.00,110.00
           C 292.00,110.00 292.00,111.00 292.00,111.00
             292.00,111.00 291.00,110.00 291.00,110.00
             291.00,110.00 292.00,110.00 292.00,110.00 Z
           M 219.00,111.00
           C 217.51,115.61 216.63,117.26 212.00,119.00
             212.00,119.00 219.00,111.00 219.00,111.00 Z
           M 296.00,117.00
           C 296.00,117.00 295.00,121.00 295.00,121.00
             297.80,119.82 297.70,119.42 296.00,117.00 Z
           M 124.00,118.00
           C 124.00,118.00 127.00,121.00 127.00,121.00
             127.00,121.00 124.00,120.00 124.00,120.00
             124.00,120.00 128.00,121.00 128.00,121.00
             128.00,121.00 128.00,119.00 128.00,119.00
             128.00,119.00 124.00,118.00 124.00,118.00 Z
           M 252.00,127.00
           C 250.45,128.52 248.80,129.77 248.36,132.05
             247.72,135.36 250.36,138.44 255.00,134.00
             255.00,134.00 254.00,133.00 254.00,133.00
             254.00,133.00 252.00,136.00 252.00,136.00
             252.00,136.00 250.00,136.00 250.00,136.00
             250.00,136.00 252.00,127.00 252.00,127.00 Z" />
</svg>
